STARTFONT 2.1
FONT -lucy-tewii-medium-r-normal--11-90-100-100-c-60-ISO10646-1
SIZE 11 100 100
FONTBOUNDINGBOX 6 13 0 -3
STARTPROPERTIES 22
COPYRIGHT "© lucy <ne.tetewi@gmail.com>"
FOUNDRY "lucy"
FAMILY_NAME "tewii"
WEIGHT_NAME "medium"
SLANT "r"
SETWIDTH_NAME "normal"
ADD_STYLE_NAME ""
PIXEL_SIZE 11
POINT_SIZE 90
RESOLUTION_X 100
RESOLUTION_Y 100
SPACING "c"
AVERAGE_WIDTH 60
CHARSET_REGISTRY "ISO10646"
CHARSET_ENCODING "1"
FONT_ASCENT 9
FONT_DESCENT 3
UNDERLINE_POSITION -1
UNDERLINE_THICKNESS 1
NORM_SPACE 6
FIGURE_WIDTH 6
_GBDFED_INFO "Edited with gbdfed 1.6."
ENDPROPERTIES
CHARS 100
STARTCHAR DIGIT ONE
ENCODING 49
SWIDTH 392 0
DWIDTH 6 0
BBX 2 7 1 0
BITMAP
40
C0
40
40
40
40
40
ENDCHAR
STARTCHAR DIGIT FOUR
ENCODING 52
SWIDTH 392 0
DWIDTH 6 0
BBX 5 7 0 0
BITMAP
10
30
50
90
F8
10
10
ENDCHAR
STARTCHAR LATIN CAPITAL LETTER I
ENCODING 73
SWIDTH 392 0
DWIDTH 6 0
BBX 1 7 2 0
BITMAP
80
80
80
80
80
80
80
ENDCHAR
STARTCHAR LATIN CAPITAL LETTER N
ENCODING 78
SWIDTH 392 0
DWIDTH 6 0
BBX 5 7 0 0
BITMAP
88
C8
A8
98
88
88
88
ENDCHAR
STARTCHAR LATIN CAPITAL LETTER W
ENCODING 87
SWIDTH 392 0
DWIDTH 6 0
BBX 5 7 0 0
BITMAP
88
88
88
88
A8
D8
88
ENDCHAR
STARTCHAR LATIN SMALL LETTER I
ENCODING 105
SWIDTH 392 0
DWIDTH 6 0
BBX 1 7 2 0
BITMAP
80
00
80
80
80
80
80
ENDCHAR
STARTCHAR LATIN SMALL LETTER J
ENCODING 106
SWIDTH 392 0
DWIDTH 6 0
BBX 3 9 0 -2
BITMAP
20
00
20
20
20
20
20
20
C0
ENDCHAR
STARTCHAR LATIN SMALL LETTER L
ENCODING 108
SWIDTH 392 0
DWIDTH 6 0
BBX 2 7 2 0
BITMAP
80
80
80
80
80
80
40
ENDCHAR
STARTCHAR LATIN CAPITAL LETTER I WITH GRAVE
ENCODING 204
SWIDTH 392 0
DWIDTH 6 0
BBX 2 9 2 0
BITMAP
80
40
00
80
80
80
80
80
80
ENDCHAR
STARTCHAR LATIN CAPITAL LETTER I WITH ACUTE
ENCODING 205
SWIDTH 392 0
DWIDTH 6 0
BBX 2 9 1 0
BITMAP
40
80
00
40
40
40
40
40
40
ENDCHAR
STARTCHAR LATIN CAPITAL LETTER I WITH CIRCUMFLEX
ENCODING 206
SWIDTH 392 0
DWIDTH 6 0
BBX 3 9 1 0
BITMAP
40
A0
00
40
40
40
40
40
40
ENDCHAR
STARTCHAR LATIN CAPITAL LETTER I WITH DIAERESIS
ENCODING 207
SWIDTH 392 0
DWIDTH 6 0
BBX 3 9 1 0
BITMAP
A0
00
40
40
40
40
40
40
40
ENDCHAR
STARTCHAR LATIN SMALL LETTER I WITH GRAVE
ENCODING 236
SWIDTH 392 0
DWIDTH 6 0
BBX 2 8 1 0
BITMAP
80
40
00
40
40
40
40
40
ENDCHAR
STARTCHAR LATIN SMALL LETTER I WITH ACUTE
ENCODING 237
SWIDTH 392 0
DWIDTH 6 0
BBX 2 8 2 0
BITMAP
40
80
00
80
80
80
80
80
ENDCHAR
STARTCHAR LATIN SMALL LETTER I WITH CIRCUMFLEX
ENCODING 238
SWIDTH 392 0
DWIDTH 6 0
BBX 3 8 1 0
BITMAP
40
A0
00
40
40
40
40
40
ENDCHAR
STARTCHAR LATIN SMALL LETTER I WITH DIAERESIS
ENCODING 239
SWIDTH 392 0
DWIDTH 6 0
BBX 3 7 1 0
BITMAP
A0
00
40
40
40
40
40
ENDCHAR
STARTCHAR LATIN CAPITAL LETTER I WITH TILDE
ENCODING 296
SWIDTH 392 0
DWIDTH 6 0
BBX 5 9 0 0
BITMAP
68
B0
00
20
20
20
20
20
20
ENDCHAR
STARTCHAR LATIN SMALL LETTER I WITH TILDE
ENCODING 297
SWIDTH 392 0
DWIDTH 6 0
BBX 5 8 0 0
BITMAP
68
B0
00
20
20
20
20
20
ENDCHAR
STARTCHAR LATIN CAPITAL LETTER I WITH MACRON
ENCODING 298
SWIDTH 392 0
DWIDTH 6 0
BBX 3 9 1 0
BITMAP
E0
00
40
40
40
40
40
40
40
ENDCHAR
STARTCHAR LATIN SMALL LETTER I WITH MACRON
ENCODING 299
SWIDTH 392 0
DWIDTH 6 0
BBX 3 7 1 0
BITMAP
E0
00
40
40
40
40
40
ENDCHAR
STARTCHAR LATIN CAPITAL LETTER I WITH BREVE
ENCODING 300
SWIDTH 392 0
DWIDTH 6 0
BBX 5 9 0 0
BITMAP
88
70
00
20
20
20
20
20
20
ENDCHAR
STARTCHAR LATIN SMALL LETTER I WITH BREVE
ENCODING 301
SWIDTH 392 0
DWIDTH 6 0
BBX 5 8 0 0
BITMAP
88
70
00
20
20
20
20
20
ENDCHAR
STARTCHAR LATIN CAPITAL LETTER I WITH OGONEK
ENCODING 302
SWIDTH 392 0
DWIDTH 6 0
BBX 2 9 1 -2
BITMAP
40
40
40
40
40
40
40
80
40
ENDCHAR
STARTCHAR LATIN SMALL LETTER I WITH OGONEK
ENCODING 303
SWIDTH 392 0
DWIDTH 6 0
BBX 2 9 1 -2
BITMAP
40
00
40
40
40
40
40
80
40
ENDCHAR
STARTCHAR LATIN CAPITAL LETTER I WITH DOT ABOVE
ENCODING 304
SWIDTH 392 0
DWIDTH 6 0
BBX 1 9 2 0
BITMAP
80
00
80
80
80
80
80
80
80
ENDCHAR
STARTCHAR LATIN SMALL LETTER DOTLESS I
ENCODING 305
SWIDTH 392 0
DWIDTH 6 0
BBX 1 5 2 0
BITMAP
80
80
80
80
80
ENDCHAR
STARTCHAR LATIN CAPITAL LIGATURE IJ
ENCODING 306
SWIDTH 392 0
DWIDTH 6 0
BBX 5 7 0 0
BITMAP
88
88
88
88
88
A8
90
ENDCHAR
STARTCHAR LATIN SMALL LIGATURE IJ
ENCODING 307
SWIDTH 392 0
DWIDTH 6 0
BBX 4 9 1 -2
BITMAP
90
00
90
90
90
90
90
10
60
ENDCHAR
STARTCHAR LATIN SMALL LETTER J WITH CIRCUMFLEX
ENCODING 309
SWIDTH 392 0
DWIDTH 6 0
BBX 4 10 0 -2
BITMAP
20
50
00
20
20
20
20
20
20
C0
ENDCHAR
STARTCHAR LATIN SMALL LETTER L WITH ACUTE
ENCODING 314
SWIDTH 392 0
DWIDTH 6 0
BBX 3 9 2 0
BITMAP
20
40
80
80
80
80
80
80
40
ENDCHAR
STARTCHAR LATIN SMALL LETTER L WITH CEDILLA
ENCODING 316
SWIDTH 392 0
DWIDTH 6 0
BBX 2 9 2 -2
BITMAP
80
80
80
80
80
80
40
40
80
ENDCHAR
STARTCHAR LATIN SMALL LETTER L WITH CARON
ENCODING 318
SWIDTH 392 0
DWIDTH 6 0
BBX 3 9 2 0
BITMAP
60
20
80
80
80
80
80
80
40
ENDCHAR
STARTCHAR LATIN SMALL LETTER L WITH MIDDLE DOT
ENCODING 320
SWIDTH 392 0
DWIDTH 6 0
BBX 3 7 2 0
BITMAP
80
80
80
A0
80
80
40
ENDCHAR
STARTCHAR LATIN SMALL LETTER L WITH STROKE
ENCODING 322
SWIDTH 392 0
DWIDTH 6 0
BBX 3 7 1 0
BITMAP
40
40
60
40
C0
40
20
ENDCHAR
STARTCHAR LATIN CAPITAL LETTER N WITH ACUTE
ENCODING 323
SWIDTH 392 0
DWIDTH 6 0
BBX 5 9 0 0
BITMAP
10
20
88
C8
A8
98
88
88
88
ENDCHAR
STARTCHAR LATIN CAPITAL LETTER N WITH CEDILLA
ENCODING 325
SWIDTH 392 0
DWIDTH 6 0
BBX 5 9 0 -2
BITMAP
88
C8
A8
98
88
88
A8
20
40
ENDCHAR
STARTCHAR LATIN CAPITAL LETTER N WITH CARON
ENCODING 327
SWIDTH 392 0
DWIDTH 6 0
BBX 5 9 0 0
BITMAP
50
20
88
C8
A8
98
88
88
88
ENDCHAR
STARTCHAR LATIN CAPITAL LETTER ENG
ENCODING 330
SWIDTH 392 0
DWIDTH 6 0
BBX 5 9 0 -2
BITMAP
88
C8
A8
98
88
88
88
08
30
ENDCHAR
STARTCHAR LATIN CAPITAL LETTER I WITH STROKE
ENCODING 407
SWIDTH 392 0
DWIDTH 6 0
BBX 3 7 1 0
BITMAP
40
40
40
E0
40
40
40
ENDCHAR
STARTCHAR LATIN SMALL LETTER L WITH BAR
ENCODING 410
SWIDTH 392 0
DWIDTH 6 0
BBX 3 7 1 0
BITMAP
40
40
40
E0
40
40
20
ENDCHAR
STARTCHAR LATIN CAPITAL LETTER N WITH LEFT HOOK
ENCODING 413
SWIDTH 392 0
DWIDTH 6 0
BBX 6 8 0 -1
BITMAP
44
64
54
4C
44
44
44
80
ENDCHAR
STARTCHAR LATIN CAPITAL LETTER L WITH SMALL LETTER J
ENCODING 456
SWIDTH 392 0
DWIDTH 6 0
BBX 5 9 0 -2
BITMAP
88
80
88
88
88
88
E8
08
30
ENDCHAR
STARTCHAR LATIN SMALL LETTER LJ
ENCODING 457
SWIDTH 392 0
DWIDTH 6 0
BBX 4 9 1 -2
BITMAP
90
80
90
90
90
90
50
10
60
ENDCHAR
STARTCHAR LATIN CAPITAL LETTER N WITH SMALL LETTER J
ENCODING 459
SWIDTH 392 0
DWIDTH 6 0
BBX 5 9 0 -2
BITMAP
A8
A0
E8
E8
E8
A8
A8
08
30
ENDCHAR
STARTCHAR LATIN SMALL LETTER NJ
ENCODING 460
SWIDTH 392 0
DWIDTH 6 0
BBX 5 9 0 -2
BITMAP
08
00
C8
A8
A8
A8
A8
08
30
ENDCHAR
STARTCHAR LATIN CAPITAL LETTER I WITH CARON
ENCODING 463
SWIDTH 392 0
DWIDTH 6 0
BBX 3 9 1 0
BITMAP
A0
40
00
40
40
40
40
40
40
ENDCHAR
STARTCHAR LATIN SMALL LETTER I WITH CARON
ENCODING 464
SWIDTH 392 0
DWIDTH 6 0
BBX 3 8 1 0
BITMAP
A0
40
00
40
40
40
40
40
ENDCHAR
STARTCHAR LATIN SMALL LETTER J WITH CARON
ENCODING 496
SWIDTH 392 0
DWIDTH 6 0
BBX 4 10 0 -2
BITMAP
50
20
00
20
20
20
20
20
20
C0
ENDCHAR
STARTCHAR LATIN CAPITAL LETTER N WITH GRAVE
ENCODING 504
SWIDTH 392 0
DWIDTH 6 0
BBX 5 9 0 0
BITMAP
40
20
88
C8
A8
98
88
88
88
ENDCHAR
STARTCHAR LATIN CAPITAL LETTER I WITH DOUBLE GRAVE
ENCODING 520
SWIDTH 392 0
DWIDTH 6 0
BBX 4 9 0 0
BITMAP
A0
50
00
20
20
20
20
20
20
ENDCHAR
STARTCHAR LATIN SMALL LETTER I WITH DOUBLE GRAVE
ENCODING 521
SWIDTH 392 0
DWIDTH 6 0
BBX 4 8 0 0
BITMAP
A0
50
00
20
20
20
20
20
ENDCHAR
STARTCHAR LATIN CAPITAL LETTER I WITH INVERTED BREVE
ENCODING 522
SWIDTH 392 0
DWIDTH 6 0
BBX 5 9 0 0
BITMAP
70
88
20
20
20
20
20
20
20
ENDCHAR
STARTCHAR LATIN SMALL LETTER I WITH INVERTED BREVE
ENCODING 523
SWIDTH 392 0
DWIDTH 6 0
BBX 5 7 0 0
BITMAP
70
88
20
20
20
20
20
ENDCHAR
STARTCHAR LATIN SMALL LETTER L WITH CURL
ENCODING 564
SWIDTH 392 0
DWIDTH 6 0
BBX 4 7 1 0
BITMAP
40
40
40
40
60
D0
60
ENDCHAR
STARTCHAR LATIN SMALL LETTER T WITH CURL
ENCODING 566
SWIDTH 392 0
DWIDTH 6 0
BBX 5 7 1 0
BITMAP
40
40
F0
40
50
68
70
ENDCHAR
STARTCHAR LATIN SMALL LETTER DOTLESS J
ENCODING 567
SWIDTH 392 0
DWIDTH 6 0
BBX 3 7 0 -2
BITMAP
20
20
20
20
20
20
C0
ENDCHAR
STARTCHAR LATIN SMALL LETTER J WITH STROKE
ENCODING 585
SWIDTH 392 0
DWIDTH 6 0
BBX 4 9 0 -2
BITMAP
20
00
20
20
70
20
20
20
C0
ENDCHAR
STARTCHAR LATIN SMALL LETTER I WITH STROKE
ENCODING 616
SWIDTH 392 0
DWIDTH 6 0
BBX 3 7 1 0
BITMAP
40
00
40
40
E0
40
40
ENDCHAR
STARTCHAR LATIN LETTER SMALL CAPITAL I
ENCODING 618
SWIDTH 392 0
DWIDTH 6 0
BBX 1 5 2 0
BITMAP
80
80
80
80
80
ENDCHAR
STARTCHAR LATIN SMALL LETTER L WITH MIDDLE TILDE
ENCODING 619
SWIDTH 392 0
DWIDTH 6 0
BBX 5 7 0 0
BITMAP
20
20
20
68
B0
20
10
ENDCHAR
STARTCHAR LATIN SMALL LETTER L WITH BELT
ENCODING 620
SWIDTH 392 0
DWIDTH 6 0
BBX 4 7 0 0
BITMAP
20
20
60
A0
70
20
10
ENDCHAR
STARTCHAR LATIN SMALL LETTER L WITH RETROFLEX HOOK
ENCODING 621
SWIDTH 392 0
DWIDTH 6 0
BBX 2 7 2 0
BITMAP
80
80
80
80
80
80
40
ENDCHAR
STARTCHAR LATIN SMALL LETTER J WITH CROSSED-TAIL
ENCODING 669
SWIDTH 392 0
DWIDTH 6 0
BBX 4 9 0 -2
BITMAP
20
00
20
20
20
20
70
A0
40
ENDCHAR
STARTCHAR GREEK CAPITAL LETTER PAMPHYLIAN DIGAMMA
ENCODING 886
SWIDTH 392 0
DWIDTH 6 0
BBX 5 6 0 0
BITMAP
88
98
A8
C8
88
88
ENDCHAR
STARTCHAR GREEK CAPITAL LETTER NU
ENCODING 925
SWIDTH 392 0
DWIDTH 6 0
BBX 5 7 0 0
BITMAP
88
C8
A8
98
88
88
88
ENDCHAR
STARTCHAR GREEK LETTER YOT
ENCODING 1011
SWIDTH 392 0
DWIDTH 6 0
BBX 3 9 0 -2
BITMAP
20
00
20
20
20
20
20
20
C0
ENDCHAR
STARTCHAR CYRILLIC CAPITAL LETTER I
ENCODING 1048
SWIDTH 392 0
DWIDTH 6 0
BBX 5 7 0 0
BITMAP
88
98
A8
C8
88
88
88
ENDCHAR
STARTCHAR CYRILLIC CAPITAL LETTER SHORT I
ENCODING 1049
SWIDTH 392 0
DWIDTH 6 0
BBX 5 9 0 0
BITMAP
50
20
88
98
A8
C8
88
88
88
ENDCHAR
STARTCHAR CYRILLIC CAPITAL LETTER I WITH MACRON
ENCODING 1250
SWIDTH 392 0
DWIDTH 6 0
BBX 5 9 0 0
BITMAP
70
00
88
98
A8
C8
88
88
88
ENDCHAR
STARTCHAR CYRILLIC CAPITAL LETTER I WITH DIAERESIS
ENCODING 1252
SWIDTH 392 0
DWIDTH 6 0
BBX 5 9 0 0
BITMAP
50
00
88
98
A8
C8
88
88
88
ENDCHAR
STARTCHAR LATIN CAPITAL LETTER I WITH TILDE BELOW
ENCODING 7724
SWIDTH 392 0
DWIDTH 6 0
BBX 5 10 0 -3
BITMAP
20
20
20
20
20
20
20
00
68
B0
ENDCHAR
STARTCHAR LATIN SMALL LETTER I WITH TILDE BELOW
ENCODING 7725
SWIDTH 392 0
DWIDTH 6 0
BBX 5 10 0 -3
BITMAP
20
00
20
20
20
20
20
00
68
B0
ENDCHAR
STARTCHAR LATIN CAPITAL LETTER I WITH DIAERESIS AND ACUTE
ENCODING 7726
SWIDTH 392 0
DWIDTH 6 0
BBX 3 9 1 0
BITMAP
20
E0
00
40
40
40
40
40
40
ENDCHAR
STARTCHAR LATIN SMALL LETTER I WITH DIAERESIS AND ACUTE
ENCODING 7727
SWIDTH 392 0
DWIDTH 6 0
BBX 3 9 1 0
BITMAP
20
40
A0
00
40
40
40
40
40
ENDCHAR
STARTCHAR LATIN SMALL LETTER L WITH DOT BELOW
ENCODING 7735
SWIDTH 392 0
DWIDTH 6 0
BBX 2 9 2 -2
BITMAP
80
80
80
80
80
80
40
00
80
ENDCHAR
STARTCHAR LATIN SMALL LETTER L WITH DOT BELOW AND MACRON
ENCODING 7737
SWIDTH 392 0
DWIDTH 6 0
BBX 3 11 1 -2
BITMAP
E0
00
40
40
40
40
40
40
20
00
40
ENDCHAR
STARTCHAR LATIN SMALL LETTER L WITH LINE BELOW
ENCODING 7739
SWIDTH 392 0
DWIDTH 6 0
BBX 3 9 1 -2
BITMAP
40
40
40
40
40
40
20
00
E0
ENDCHAR
STARTCHAR LATIN SMALL LETTER L WITH CIRCUMFLEX BELOW
ENCODING 7741
SWIDTH 392 0
DWIDTH 6 0
BBX 3 10 1 -3
BITMAP
40
40
40
40
40
40
20
00
40
A0
ENDCHAR
STARTCHAR LATIN CAPITAL LETTER N WITH DOT ABOVE
ENCODING 7748
SWIDTH 392 0
DWIDTH 6 0
BBX 5 9 0 0
BITMAP
20
00
88
C8
A8
98
88
88
88
ENDCHAR
STARTCHAR LATIN CAPITAL LETTER N WITH DOT BELOW
ENCODING 7750
SWIDTH 392 0
DWIDTH 6 0
BBX 5 9 0 -2
BITMAP
88
C8
A8
98
88
88
88
00
20
ENDCHAR
STARTCHAR LATIN CAPITAL LETTER N WITH LINE BELOW
ENCODING 7752
SWIDTH 392 0
DWIDTH 6 0
BBX 5 9 0 -2
BITMAP
88
C8
A8
98
88
88
88
00
70
ENDCHAR
STARTCHAR LATIN CAPITAL LETTER N WITH CIRCUMFLEX BELOW
ENCODING 7754
SWIDTH 392 0
DWIDTH 6 0
BBX 5 10 0 -3
BITMAP
88
C8
A8
98
88
88
88
00
20
50
ENDCHAR
STARTCHAR LATIN CAPITAL LETTER W WITH GRAVE
ENCODING 7808
SWIDTH 392 0
DWIDTH 6 0
BBX 5 9 0 0
BITMAP
40
20
88
88
88
88
A8
D8
88
ENDCHAR
STARTCHAR LATIN CAPITAL LETTER W WITH ACUTE
ENCODING 7810
SWIDTH 392 0
DWIDTH 6 0
BBX 5 9 0 0
BITMAP
10
20
88
88
88
88
A8
D8
88
ENDCHAR
STARTCHAR LATIN CAPITAL LETTER W WITH DIAERESIS
ENCODING 7812
SWIDTH 392 0
DWIDTH 6 0
BBX 5 9 0 0
BITMAP
50
00
88
88
88
88
A8
D8
88
ENDCHAR
STARTCHAR LATIN CAPITAL LETTER W WITH DOT ABOVE
ENCODING 7814
SWIDTH 392 0
DWIDTH 6 0
BBX 5 9 0 0
BITMAP
20
00
88
88
88
88
A8
D8
88
ENDCHAR
STARTCHAR LATIN CAPITAL LETTER W WITH DOT BELOW
ENCODING 7816
SWIDTH 392 0
DWIDTH 6 0
BBX 5 9 0 -2
BITMAP
88
88
88
88
A8
D8
88
00
20
ENDCHAR
STARTCHAR LATIN CAPITAL LETTER I WITH HOOK ABOVE
ENCODING 7880
SWIDTH 392 0
DWIDTH 6 0
BBX 2 9 2 0
BITMAP
80
40
80
80
80
80
80
80
80
ENDCHAR
STARTCHAR LATIN SMALL LETTER I WITH HOOK ABOVE
ENCODING 7881
SWIDTH 392 0
DWIDTH 6 0
BBX 2 8 2 0
BITMAP
80
40
80
80
80
80
80
80
ENDCHAR
STARTCHAR LATIN CAPITAL LETTER I WITH DOT BELOW
ENCODING 7882
SWIDTH 392 0
DWIDTH 6 0
BBX 1 9 2 -2
BITMAP
80
80
80
80
80
80
80
00
80
ENDCHAR
STARTCHAR LATIN SMALL LETTER I WITH DOT BELOW
ENCODING 7883
SWIDTH 392 0
DWIDTH 6 0
BBX 1 9 2 -2
BITMAP
80
00
80
80
80
80
80
00
80
ENDCHAR
STARTCHAR LATIN CAPITAL LETTER MIDDLE-WELSH LL
ENCODING 7930
SWIDTH 392 0
DWIDTH 6 0
BBX 5 7 0 0
BITMAP
A0
A0
A0
A0
A0
A0
B8
ENDCHAR
STARTCHAR LATIN SMALL LETTER MIDDLE-WELSH LL
ENCODING 7931
SWIDTH 392 0
DWIDTH 6 0
BBX 5 7 0 0
BITMAP
50
50
F8
50
50
50
28
ENDCHAR
STARTCHAR SUPERSCRIPT LATIN SMALL LETTER I
ENCODING 8305
SWIDTH 392 0
DWIDTH 6 0
BBX 1 6 2 3
BITMAP
80
00
80
80
80
80
ENDCHAR
STARTCHAR SUBSCRIPT ONE
ENCODING 8321
SWIDTH 392 0
DWIDTH 6 0
BBX 2 5 1 -2
BITMAP
40
C0
40
40
40
ENDCHAR
STARTCHAR LATIN SUBSCRIPT SMALL LETTER L
ENCODING 8343
SWIDTH 392 0
DWIDTH 6 0
BBX 2 5 1 -1
BITMAP
80
80
80
80
40
ENDCHAR
STARTCHAR WON SIGN
ENCODING 8361
SWIDTH 392 0
DWIDTH 6 0
BBX 5 7 0 0
BITMAP
88
F8
88
F8
A8
D8
88
ENDCHAR
STARTCHAR SMALL ROMAN NUMERAL FIFTY
ENCODING 8572
SWIDTH 392 0
DWIDTH 6 0
BBX 2 7 2 0
BITMAP
80
80
80
80
80
80
40
ENDCHAR
STARTCHAR LATIN SMALL LETTER L WITH DOUBLE BAR
ENCODING 11361
SWIDTH 392 0
DWIDTH 6 0
BBX 3 7 1 0
BITMAP
40
40
E0
40
E0
40
20
ENDCHAR
STARTCHAR LATIN SUBSCRIPT SMALL LETTER J
ENCODING 11388
SWIDTH 392 0
DWIDTH 6 0
BBX 3 9 0 -3
BITMAP
20
00
20
20
20
20
20
20
C0
ENDCHAR
ENDFONT
